<?xml version="1.0" encoding="UTF-8" standalone="no"?>
<svg
   xmlns:dc="http://purl.org/dc/elements/1.1/"
   xmlns:cc="http://creativecommons.org/ns#"
   xmlns:rdf="http://www.w3.org/1999/02/22-rdf-syntax-ns#"
   xmlns:svg="http://www.w3.org/2000/svg"
   xmlns="http://www.w3.org/2000/svg"
   xmlns:sodipodi="http://sodipodi.sourceforge.net/DTD/sodipodi-0.dtd"
   xmlns:inkscape="http://www.inkscape.org/namespaces/inkscape"
   width="158.9mm"
   height="32.241mm"
   version="1.1"
   viewBox="0 0 158.9 32.241"
   id="svg24"
   sodipodi:docname="namelogo.svg"
   inkscape:version="1.0.2 (e86c870879, 2021-01-15)">
  <defs
     id="defs28" />
  <sodipodi:namedview
     pagecolor="#ffffff"
     bordercolor="#666666"
     borderopacity="1"
     objecttolerance="10"
     gridtolerance="10"
     guidetolerance="10"
     inkscape:pageopacity="0"
     inkscape:pageshadow="2"
     inkscape:window-width="1916"
     inkscape:window-height="1031"
     id="namedview26"
     showgrid="false"
     inkscape:zoom="2.1971356"
     inkscape:cx="305.00907"
     inkscape:cy="61.560802"
     inkscape:window-x="0"
     inkscape:window-y="0"
     inkscape:window-maximized="1"
     inkscape:current-layer="g22"
     inkscape:snap-bbox="true"
     inkscape:bbox-paths="false"
     inkscape:bbox-nodes="false"
     inkscape:snap-bbox-edge-midpoints="false"
     inkscape:snap-bbox-midpoints="true"
     inkscape:object-paths="true"
     inkscape:snap-intersection-paths="true"
     inkscape:snap-smooth-nodes="true"
     inkscape:snap-midpoints="true"
     inkscape:snap-object-midpoints="true"
     inkscape:snap-center="true"
     inkscape:snap-text-baseline="true"
     inkscape:snap-global="true"
     inkscape:snap-nodes="false"
     inkscape:snap-others="false"
     inkscape:document-rotation="0" />
  <metadata
     id="metadata2">
    <rdf:RDF>
      <cc:Work
         rdf:about="">
        <dc:format>image/svg+xml</dc:format>
        <dc:type
           rdf:resource="http://purl.org/dc/dcmitype/StillImage" />
        <dc:title />
      </cc:Work>
    </rdf:RDF>
  </metadata>
  <g
     transform="translate(11.395 -66.9)"
     id="g22">
    <g
       aria-label="projectideas"
       id="text6"
       style="font-weight:bold;font-size:16.933px;line-height:1.25;font-family:FreeMono;font-variant-ligatures:normal;font-variant-caps:normal;font-variant-numeric:normal;font-variant-east-asian:normal;fill:#ffffff;stroke-width:0.26458"
       transform="translate(-1.240295,1.54067)">
      <path
         d="m -7.7404292,85.295902 v 4.828551 H -10.154705 V 77.342022 h 2.4142758 v 1.389035 q 0.3803311,-0.802002 1.0004361,-1.207137 0.620105,-0.405136 1.4551798,-0.405136 1.5874688,0 2.4638838,1.273283 0.8764151,1.273282 0.8764151,3.58834 0,2.348131 -0.8929512,3.604878 -0.8846831,1.256746 -2.5300284,1.256746 -0.744126,0 -1.3394268,-0.380331 -0.5870328,-0.388599 -1.0335084,-1.165798 z m 3.3733713,-3.332031 q 0,-1.339426 -0.4464756,-2.100089 -0.4464756,-0.760662 -1.231942,-0.760662 -0.7854663,0 -1.24021,0.760662 -0.4547437,0.760663 -0.4547437,2.100089 0,1.339427 0.4547437,2.100089 0.4547437,0.760662 1.24021,0.760662 0.7854664,0 1.231942,-0.760662 0.4464756,-0.760662 0.4464756,-2.100089 z"
         style="font-weight:bold;font-size:16.933px;font-family:FreeMono;font-variant-ligatures:normal;font-variant-caps:normal;font-variant-numeric:normal;font-variant-east-asian:normal;fill:#ffffff;stroke-width:0.26458"
         id="path19" />
      <path
         d="M 8.3161568,79.896855 Q 7.9192896,79.53306 7.3818653,79.351162 6.852709,79.169265 6.2160679,79.169265 q -0.7689302,0 -1.3476949,0.272846 -0.5704966,0.264578 -0.8846831,0.777198 -0.1984336,0.314187 -0.2811143,0.760662 -0.074413,0.446476 -0.074413,1.355963 v 4.266323 H 1.2056194 V 77.342022 H 3.628163 v 1.438644 q 0.3555269,-0.793735 1.0913848,-1.223674 0.7358579,-0.438208 1.7197579,-0.438208 0.496084,0 0.9673638,0.124021 0.4795478,0.115753 0.9094873,0.347259 z"
         style="font-weight:bold;font-size:16.933px;font-family:FreeMono;font-variant-ligatures:normal;font-variant-caps:normal;font-variant-numeric:normal;font-variant-east-asian:normal;fill:#ffffff;stroke-width:0.26458"
         id="path21" />
      <path
         d="m 14.087268,79.086584 q -0.868147,0 -1.364231,0.76893 -0.496084,0.760662 -0.496084,2.124893 0,1.364232 0.496084,2.133162 0.496084,0.760662 1.364231,0.760662 0.876415,0 1.372499,-0.760662 0.496084,-0.76893 0.496084,-2.133162 0,-1.364231 -0.496084,-2.124893 -0.496084,-0.76893 -1.372499,-0.76893 z m -4.2828587,2.893823 q 0,-2.240646 1.1575297,-3.547 1.165797,-1.314623 3.125329,-1.314623 1.9678,0 3.125329,1.314623 1.165797,1.306354 1.165797,3.547 0,2.240647 -1.165797,3.555269 -1.157529,1.306355 -3.125329,1.306355 -1.959532,0 -3.125329,-1.306355 -1.1575297,-1.314622 -1.1575297,-3.555269 z"
         style="font-weight:bold;font-size:16.933px;font-family:FreeMono;font-variant-ligatures:normal;font-variant-caps:normal;font-variant-numeric:normal;font-variant-east-asian:normal;fill:#ffffff;stroke-width:0.26458"
         id="path23" />
      <path
         d="m 26.216522,86.24673 q 0,2.083553 -0.752394,2.968236 -0.744126,0.892951 -2.48042,0.892951 h -2.612709 v -1.860315 h 1.934728 q 0.81027,0 1.149261,-0.454744 0.338991,-0.454743 0.338991,-1.546128 v -7.044393 h -2.455616 v -1.860315 h 4.878159 z m 0,-10.583125 h -2.422543 v -2.827679 h 2.422543 z"
         style="font-weight:bold;font-size:16.933px;font-family:FreeMono;font-variant-ligatures:normal;font-variant-caps:normal;font-variant-numeric:normal;font-variant-east-asian:normal;fill:#ffffff;stroke-width:0.26458"
         id="path25" />
      <path
         d="m 38.494602,86.147513 q -0.843343,0.347259 -1.719758,0.520888 -0.876415,0.17363 -1.852047,0.17363 -2.323327,0 -3.555269,-1.24021 -1.223674,-1.248478 -1.223674,-3.588341 0,-2.265451 1.182334,-3.580073 1.182333,-1.314623 3.224546,-1.314623 2.058748,0 3.191473,1.223674 1.140994,1.215406 1.140994,3.431248 v 0.9839 h -6.275463 q 0.0083,1.091385 0.644909,1.628809 0.636641,0.537424 1.901656,0.537424 0.835074,0 1.645345,-0.239774 0.81027,-0.239774 1.694954,-0.760662 z m -2.050481,-5.208882 q -0.01654,-0.959096 -0.496084,-1.446912 -0.47128,-0.496084 -1.397303,-0.496084 -0.835075,0 -1.331159,0.512621 -0.496084,0.504352 -0.587033,1.438643 z"
         style="font-weight:bold;font-size:16.933px;font-family:FreeMono;font-variant-ligatures:normal;font-variant-caps:normal;font-variant-numeric:normal;font-variant-east-asian:normal;fill:#ffffff;stroke-width:0.26458"
         id="path27" />
      <path
         d="m 48.350137,86.130977 q -0.611836,0.355527 -1.314622,0.529156 -0.702786,0.181898 -1.513056,0.181898 -2.14143,0 -3.348567,-1.289819 -1.207138,-1.289818 -1.207138,-3.571805 0,-2.290254 1.215406,-3.580072 1.215406,-1.298087 3.356835,-1.298087 0.744126,0 1.430375,0.17363 0.694518,0.173629 1.380767,0.537424 v 2.215842 Q 47.820981,79.5744 47.18434,79.334626 q -0.628373,-0.248042 -1.306354,-0.248042 -1.182334,0 -1.818975,0.752394 -0.636641,0.752394 -0.636641,2.141429 0,1.389036 0.636641,2.133162 0.636641,0.744126 1.818975,0.744126 0.702785,0 1.314622,-0.231506 0.611837,-0.239774 1.157529,-0.719322 z"
         style="font-weight:bold;font-size:16.933px;font-family:FreeMono;font-variant-ligatures:normal;font-variant-caps:normal;font-variant-numeric:normal;font-variant-east-asian:normal;fill:#ffffff;stroke-width:0.26458"
         id="path29" />
      <path
         d="m 55.477211,74.712777 v 2.629245 h 3.16667 v 1.860315 h -3.16667 v 4.382075 q 0,0.620105 0.297651,0.892952 0.305918,0.264578 1.008704,0.264578 h 1.860315 v 1.860315 h -2.033944 q -2.083553,0 -2.819411,-0.661446 -0.735858,-0.669713 -0.735858,-2.472151 v -4.266323 h -2.364667 v -1.860315 h 2.364667 v -2.629245 z"
         style="font-weight:bold;font-size:16.933px;font-family:FreeMono;font-variant-ligatures:normal;font-variant-caps:normal;font-variant-numeric:normal;font-variant-east-asian:normal;fill:#ffffff;stroke-width:0.26458"
         id="path31" />
      <path
         d="m 61.794015,77.342022 h 4.795478 v 7.39992 h 3.009577 v 1.860315 h -8.449964 v -1.860315 h 3.017844 v -5.539605 h -2.372935 z m 2.372935,-4.506096 h 2.422543 v 2.827679 H 64.16695 Z"
         style="font-weight:bold;font-size:16.933px;font-family:FreeMono;font-variant-ligatures:normal;font-variant-caps:normal;font-variant-numeric:normal;font-variant-east-asian:normal;fill:#ffffff;stroke-width:0.26458"
         id="path33" />
      <path
         d="m 76.701339,78.656645 v -4.9195 h 2.414276 v 12.865112 h -2.414276 v -1.372499 q -0.388599,0.802002 -1.008704,1.207137 -0.611837,0.405136 -1.446911,0.405136 -1.587469,0 -2.463884,-1.273283 -0.876415,-1.273282 -0.876415,-3.588341 0,-2.34813 0.884683,-3.604877 0.892951,-1.256746 2.538296,-1.256746 0.744126,0 1.331159,0.388599 0.595301,0.380331 1.041776,1.149262 z m -3.373371,3.340299 q 0,1.339426 0.446476,2.100089 0.446475,0.760662 1.231942,0.760662 0.785466,0 1.24021,-0.760662 0.454743,-0.760663 0.454743,-2.100089 0,-1.339427 -0.454743,-2.100089 -0.454744,-0.760662 -1.24021,-0.760662 -0.785467,0 -1.231942,0.760662 -0.446476,0.760662 -0.446476,2.100089 z"
         style="font-weight:bold;font-size:16.933px;font-family:FreeMono;font-variant-ligatures:normal;font-variant-caps:normal;font-variant-numeric:normal;font-variant-east-asian:normal;fill:#ffffff;stroke-width:0.26458"
         id="path35" />
      <path
         d="m 89.467235,86.147513 q -0.843343,0.347259 -1.719758,0.520888 -0.876415,0.17363 -1.852047,0.17363 -2.323327,0 -3.555269,-1.24021 -1.223673,-1.248478 -1.223673,-3.588341 0,-2.265451 1.182333,-3.580073 1.182334,-1.314623 3.224546,-1.314623 2.058749,0 3.191474,1.223674 1.140993,1.215406 1.140993,3.431248 v 0.9839 h -6.275463 q 0.0083,1.091385 0.64491,1.628809 0.636641,0.537424 1.901655,0.537424 0.835075,0 1.645345,-0.239774 0.810271,-0.239774 1.694954,-0.760662 z m -2.050481,-5.208882 q -0.01654,-0.959096 -0.496084,-1.446912 -0.471279,-0.496084 -1.397303,-0.496084 -0.835075,0 -1.331159,0.512621 -0.496084,0.504352 -0.587032,1.438643 z"
         style="font-weight:bold;font-size:16.933px;font-family:FreeMono;font-variant-ligatures:normal;font-variant-caps:normal;font-variant-numeric:normal;font-variant-east-asian:normal;fill:#ffffff;stroke-width:0.26458"
         id="path37" />
      <path
         d="m 96.337999,82.253254 q -1.355963,0 -1.893387,0.347259 -0.537425,0.347258 -0.537425,1.190601 0,0.628373 0.372063,1.000436 0.372063,0.372063 1.008704,0.372063 0.959096,0 1.488252,-0.719322 0.529157,-0.727589 0.529157,-2.025676 v -0.165361 z m 3.373371,-0.934292 v 5.283295 h -2.406007 v -1.033509 q -0.438208,0.611837 -1.124457,0.94256 -0.68625,0.330723 -1.513057,0.330723 -1.5792,0 -2.463884,-0.835075 -0.876415,-0.835075 -0.876415,-2.331595 0,-1.620541 1.050045,-2.389471 1.050044,-0.777198 3.24935,-0.777198 h 1.678418 v -0.405136 q 0,-0.587032 -0.42994,-0.884683 -0.421671,-0.305918 -1.248478,-0.305918 -0.868147,0 -1.686686,0.223238 -0.81027,0.214969 -1.694953,0.694517 v -2.067017 q 0.802002,-0.330722 1.628809,-0.487815 0.826807,-0.157094 1.75283,-0.157094 2.257182,0 3.16667,0.917756 0.917755,0.917755 0.917755,3.282422 z"
         style="font-weight:bold;font-size:16.933px;font-family:FreeMono;font-variant-ligatures:normal;font-variant-caps:normal;font-variant-numeric:normal;font-variant-east-asian:normal;fill:#ffffff;stroke-width:0.26458"
         id="path39" />
      <path
         d="m 108.93853,77.631404 v 2.116625 q -0.66971,-0.429939 -1.3973,-0.644909 -0.71932,-0.223238 -1.44691,-0.223238 -0.81027,0 -1.22368,0.239774 -0.4134,0.231506 -0.4134,0.694518 0,0.661445 1.76937,1.074849 l 0.091,0.0248 0.69451,0.165361 q 1.32289,0.314187 1.93473,1.016972 0.62011,0.694518 0.62011,1.88512 0,1.430375 -0.94256,2.149697 -0.9343,0.711054 -2.81941,0.711054 -0.83508,0 -1.71149,-0.148825 -0.87642,-0.140558 -1.77764,-0.42994 v -2.116625 q 0.802,0.454744 1.62881,0.694518 0.83508,0.239774 1.61227,0.239774 0.85161,0 1.28982,-0.248042 0.43821,-0.248042 0.43821,-0.719322 0,-0.463012 -0.31419,-0.711054 -0.30592,-0.248042 -1.47171,-0.529156 l -0.66972,-0.148825 q -1.38903,-0.314187 -2.02567,-0.9839 -0.63664,-0.669714 -0.63664,-1.794171 0,-1.339427 0.96736,-2.083553 0.96736,-0.744126 2.72019,-0.744126 0.78547,0 1.56267,0.132289 0.78546,0.124021 1.52132,0.380331 z"
         style="font-weight:bold;font-size:16.933px;font-family:FreeMono;font-variant-ligatures:normal;font-variant-caps:normal;font-variant-numeric:normal;font-variant-east-asian:normal;fill:#ffffff;stroke-width:0.26458"
         id="path41" />
    </g>
    <g
       id="g44">
      <g
         transform="translate(0 -1.0583)"
         fill="#808080"
         id="g16">
        <path
           transform="matrix(.67589 0 0 .57389 46.75 39.566)"
           d="m135.22 95.724c0.49022 0 5.7936 9.1857 5.5485 9.6102-0.24511 0.42454-10.852 0.42454-11.097 0-0.24511-0.42455 5.0582-9.6102 5.5485-9.6102z"
           stroke-width=".26458"
           id="path12" />
        <rect
           x="136.44"
           y="94.171"
           width="3.6026"
           height="4.395"
           ry="0"
           stroke-width=".23243"
           id="rect14" />
      </g>
      <g
         id="g34">
        <path
           transform="scale(.26458)"
           d="m435.44 252.85v32.871c0 8.4698 6.8193 15.289 15.289 15.289h32.871v-32.873c0-8.4698-6.8173-15.287-15.287-15.287h-11.723zm6.7441 6.7441h23.666c6.0979 0 11.008 4.908 11.008 11.006v23.666h-23.668c-6.0979 0-11.006-4.908-11.006-11.006v-9.6406z"
           fill="#ff0"
           stroke-width=".29422"
           id="path8" />
        <path
           transform="scale(.26458)"
           d="m497.43 305.01c-5.4443 0-9.8281 4.3839-9.8281 9.8281v28.506c0 5.4443 4.3839 9.8262 9.8281 9.8262h50.262c5.4443 0 9.8281-4.3819 9.8281-9.8262v-28.506c0-5.4442-4.3839-9.8281-9.8281-9.8281zm6.1289 5.873h38.004c4.1165 0 7.4316 3.3132 7.4316 7.4297v21.555c0 4.1165-3.3151 7.4297-7.4316 7.4297h-38.004c-4.1165 0-7.4297-3.3132-7.4297-7.4297v-21.555c0-4.1165 3.3132-7.4297 7.4297-7.4297z"
           fill="#808080"
           stroke-width=".99024"
           id="path10" />
        <path
           d="m141.75 66.9h-8.6972c-2.241 0-4.0452 1.8043-4.0452 4.0452v8.6972h8.6977c2.241 0 4.0447-1.8038 4.0447-4.0447v-3.1016zm-1.7844 1.7844v6.2616c0 1.6134-1.2986 2.9125-2.912 2.9125h-6.2616v-6.2622c0-1.6134 1.2986-2.912 2.912-2.912h2.5508z"
           fill="#800080"
           stroke-width=".077846"
           id="path18" />
        <path
           d="m115.21 80.659v8.6971c0 2.241 1.8043 4.0452 4.0452 4.0452h8.6972v-8.6977c0-2.241-1.8038-4.0447-4.0447-4.0447h-3.1016zm1.7844 1.7844h6.2616c1.6134 0 2.9125 1.2986 2.9125 2.912v6.2616h-6.2622c-1.6134 0-2.912-1.2986-2.912-2.912v-2.5508z"
           fill="#008000"
           stroke-width=".077846"
           id="path20" />
      </g>
    </g>
  </g>
</svg>
