<?xml version="1.0" encoding="UTF-8"?>
<svg width="50.692mm" height="50.692mm" version="1.1" viewBox="0 0 50.692 50.692" xmlns="http://www.w3.org/2000/svg" xmlns:cc="http://creativecommons.org/ns#" xmlns:dc="http://purl.org/dc/elements/1.1/" xmlns:rdf="http://www.w3.org/1999/02/22-rdf-syntax-ns#">
 <metadata>
  <rdf:RDF>
   <cc:Work rdf:about="">
    <dc:format>image/svg+xml</dc:format>
    <dc:type rdf:resource="http://purl.org/dc/dcmitype/StillImage"/>
    <dc:title/>
   </cc:Work>
  </rdf:RDF>
 </metadata>
 <g transform="translate(-105.05 -58.829)">
  <circle cx="130.4" cy="84.175" r="25.346" fill="#fff" stroke-width=".36225"/>
  <path d="m114.25 68.055v8.6971c0 2.241 1.8043 4.0452 4.0452 4.0452h8.6971v-8.6977c0-2.241-1.8038-4.0447-4.0447-4.0447h-3.1016zm1.7844 1.7844h6.2616c1.6134 0 2.9125 1.2986 2.9125 2.912v6.2616h-6.2622c-1.6134 0-2.912-1.2986-2.912-2.912v-2.5508z" fill="#ff0" stroke-width=".077846"/>
  <path d="m130.65 81.855c-1.4405 0-2.6004 1.1599-2.6004 2.6004v7.5422c0 1.4405 1.1599 2.5998 2.6004 2.5998h13.298c1.4405 0 2.6004-1.1594 2.6004-2.5998v-7.5422c0-1.4405-1.1599-2.6004-2.6004-2.6004zm1.6216 1.5539h10.055c1.0892 0 1.9663 0.87662 1.9663 1.9658v5.703c0 1.0892-0.87713 1.9658-1.9663 1.9658h-10.055c-1.0892 0-1.9658-0.87662-1.9658-1.9658v-5.703c0-1.0892 0.87662-1.9658 1.9658-1.9658z" fill="#808080" stroke-width=".262"/>
  <g transform="translate(-.95911 .096086)" fill="#808080">
   <path transform="matrix(.67589 0 0 .57389 46.75 39.566)" d="m135.22 95.724c0.49022 0 5.7936 9.1857 5.5485 9.6102-0.24511 0.42454-10.852 0.42454-11.097 0-0.24511-0.42455 5.0582-9.6102 5.5485-9.6102z" stroke-width=".26458"/>
   <rect x="136.44" y="94.171" width="3.6026" height="4.395" ry="0" stroke-width=".23243"/>
  </g>
  <path d="m140.79 68.055h-8.6972c-2.241 0-4.0452 1.8043-4.0452 4.0452v8.6972h8.6977c2.241 0 4.0447-1.8038 4.0447-4.0447v-3.1016zm-1.7844 1.7844v6.2616c0 1.6134-1.2986 2.9125-2.912 2.9125h-6.2616v-6.2622c0-1.6134 1.2986-2.912 2.912-2.912h2.5508z" fill="#800080" stroke-width=".077846"/>
  <path d="m114.25 81.813v8.6971c0 2.241 1.8043 4.0452 4.0452 4.0452h8.6972v-8.6977c0-2.241-1.8038-4.0447-4.0447-4.0447h-3.1016zm1.7844 1.7844h6.2616c1.6134 0 2.9125 1.2986 2.9125 2.912v6.2616h-6.2622c-1.6134 0-2.912-1.2986-2.912-2.912v-2.5508z" fill="#008000" stroke-width=".077846"/>
 </g>
</svg>
